<?xml version="1.0" encoding="iso-8859-1"?>
<!-- Generator: Adobe Illustrator 16.0.0, SVG Export Plug-In . SVG Version: 6.00 Build 0)  -->
<!DOCTYPE svg PUBLIC "-//W3C//DTD SVG 1.1//EN" "http://www.w3.org/Graphics/SVG/1.1/DTD/svg11.dtd">
<svg version="1.1" fill="#fff" id="Capa_1" xmlns="http://www.w3.org/2000/svg" xmlns:xlink="http://www.w3.org/1999/xlink" x="0px" y="0px"
	 width="957.801px" height="957.801px" viewBox="0 0 957.801 957.801" style="enable-background:new 0 0 957.801 957.801;"
	 xml:space="preserve">
<g>
	<g>
		<path d="M834.199,291.45c-5.6-8-14.799-12.8-24.6-12.8H620v406.5h30.699c4.201-27.601,17-53.101,37.102-73.2
			c24.898-24.9,58-38.6,93.199-38.6s68.301,13.699,93.199,38.6c20.102,20.1,32.9,45.6,37.102,73.2h16.5c16.6,0,30-13.4,30-30V478.05
			c0-6.1-1.9-12.1-5.4-17.199L834.199,291.45z M866.301,460.65H682.9c-11.701,0-21.1-9.5-21.1-21.101V349.65
			c0-11.7,9.5-21.101,21.1-21.101h111.5c7,0,13.5,3.4,17.4,9.2l67.5,98.2C886.6,446.25,879.1,460.65,866.301,460.65z"/>
		<path d="M65.5,685.15c4.2-27.601,17-53.101,37.1-73.2c24.9-24.9,58-38.6,93.2-38.6c35.2,0,68.3,13.699,93.2,38.6
			c20.101,20.1,32.9,45.6,37.101,73.2h259v-442.7h80.6c16.602,0,30-13.4,30-30v-26.5c0-16.6-13.398-30-30-30h-123H456.6H30
			c-16.6,0-30,13.4-30,30v469.2c0,16.6,13.4,30,30,30H65.5z M152.8,374.05c0-16.6,13.4-30,30-30h68.3v-68.3c0-16.6,13.4-30,30-30h28
			c16.6,0,30,13.4,30,30v68.3h68.3c16.6,0,30,13.4,30,30v28c0,16.601-13.4,30-30,30h-68.3v68.301c0,16.6-13.4,30-30,30h-28
			c-16.6,0-30-13.4-30-30V432.05h-68.3c-16.6,0-30-13.399-30-30V374.05L152.8,374.05z"/>
		<path d="M195.8,608.351c-46.6,0-85.5,32.899-94.7,76.699c-1.2,5.7-1.9,11.5-2,17.5c0,0.801,0,1.7,0,2.5c0,5.101,0.4,10.101,1.2,15
			c7.2,46.301,47.3,81.7,95.6,81.7s88.4-35.399,95.6-81.7c0.801-4.899,1.2-9.899,1.2-15c0-0.8,0-1.699,0-2.5
			c-0.2-6-0.899-11.8-2-17.5C281.2,641.351,242.4,608.351,195.8,608.351z"/>
		<path d="M781,801.851c53.4,0,96.699-43.301,96.699-96.7c0-6.9-0.699-13.5-2.1-20c-9.199-43.8-48.1-76.7-94.699-76.7
			s-85.5,32.9-94.701,76.7c-1.398,6.5-2.1,13.1-2.1,20C684.301,758.55,727.6,801.851,781,801.851z"/>
	</g>
</g>
<g>
</g>
<g>
</g>
<g>
</g>
<g>
</g>
<g>
</g>
<g>
</g>
<g>
</g>
<g>
</g>
<g>
</g>
<g>
</g>
<g>
</g>
<g>
</g>
<g>
</g>
<g>
</g>
<g>
</g>
</svg>
