<?xml version="1.0" encoding="iso-8859-1"?>
<!-- Generator: Adobe Illustrator 16.0.0, SVG Export Plug-In . SVG Version: 6.00 Build 0)  -->
<!DOCTYPE svg PUBLIC "-//W3C//DTD SVG 1.1//EN" "http://www.w3.org/Graphics/SVG/1.1/DTD/svg11.dtd">
<svg version="1.1" fill="#fff" id="Capa_1" xmlns="http://www.w3.org/2000/svg" xmlns:xlink="http://www.w3.org/1999/xlink" x="0px" y="0px"
	 width="936.247px" height="936.247px" viewBox="0 0 936.247 936.247" style="enable-background:new 0 0 936.247 936.247;"
	 xml:space="preserve">
<g>
	<g>
		<path d="M337.497,536.048c-16.1,46.3-21.1,96.699-12.9,147.1c3,18.5,22,29.7,39.601,23.5l249.5-88.5l253.7-89.1
			c17.6-6.2,25.399-26.801,16.199-43c-53.899-94.9-154.8-152.2-261.699-152.2c-24.101,0-48.5,2.9-72.7,9c-9.2,2.3-18.3,5-27.4,8.2
			c-5.6,2-11,4.1-16.399,6.3c-12,5-23.5,10.7-34.4,17.1C407.296,411.247,360.796,469.348,337.497,536.048z"/>
		<path d="M879.697,563.848l-254.101,89.2l-249.199,88.3c-17.601,6.2-25.301,26.8-16.101,43
			c53.9,94.7,154.8,151.899,261.601,151.899c33.199,0,67-5.5,100.1-17.199c139.5-49.2,220-190.601,197.3-331.7
			C916.296,568.947,897.397,557.647,879.697,563.848z"/>
		<path d="M537.897,310.147c20.3-115-37.9-233.8-148.9-285.4c-115.4-53.7-249.6-17-322.9,81c-11.4,15.2-5.9,37.1,11.4,45.2
			l141.7,65.8l249.7,116.9c9.8-4.6,19.899-8.8,30.199-12.4C511.897,316.647,524.796,313.047,537.897,310.147z"/>
		<path d="M165.997,504.048c43.2,20.1,89.1,27.5,133.4,23.8c4.6-14.5,10.1-28.601,16.8-42.5c18-37.601,42.7-70.9,73.399-98.8
			c12.5-11.4,25.7-21.601,39.7-30.8l-226-105.8l-141.4-65.7c-17.2-8-37.5,1.8-41.9,20.4
			C-7.803,323.848,50.597,450.348,165.997,504.048z"/>
	</g>
</g>
<g>
</g>
<g>
</g>
<g>
</g>
<g>
</g>
<g>
</g>
<g>
</g>
<g>
</g>
<g>
</g>
<g>
</g>
<g>
</g>
<g>
</g>
<g>
</g>
<g>
</g>
<g>
</g>
<g>
</g>
</svg>
