<?xml version="1.0" encoding="iso-8859-1"?>
<!-- Generator: Adobe Illustrator 16.0.0, SVG Export Plug-In . SVG Version: 6.00 Build 0)  -->
<!DOCTYPE svg PUBLIC "-//W3C//DTD SVG 1.1//EN" "http://www.w3.org/Graphics/SVG/1.1/DTD/svg11.dtd">
<svg version="1.1" id="Capa_1" xmlns="http://www.w3.org/2000/svg" xmlns:xlink="http://www.w3.org/1999/xlink" x="0px" y="0px"
	 width="861.5px" height="861.5px" viewBox="0 0 861.5 861.5" style="enable-background:new 0 0 861.5 861.5;" xml:space="preserve"
	>
<g>
	<g>
		<path d="M251.4,174.4H257v-58.3h-87.9c-16.6,0-30,13.4-30,30v685.4c0,16.6,13.4,30,30,30h523.3c16.601,0,30-13.4,30-30V146.1
			c0-16.6-13.399-30-30-30h-87.8v58.3h5.6c11,0,20,9,20,20v268.7h-55.8l-49.3-135.8c-4.5-12.5-21.9-13.3-27.6-1.3L411.2,507.6
			l-56-100.1c-5.699-10.3-20.5-10.2-26.199,0l-30.9,55.7h-66.6V194.4C231.4,183.3,240.4,174.4,251.4,174.4z M317.7,511.5
			c5.4,0,10.5-3,13.101-7.7l11.399-20.5L400.5,587.6C406.4,598.2,421.9,597.7,427.1,586.7l79.7-167.8l30,82.699
			c2.2,5.9,7.8,9.9,14.1,9.9h79.2v203.7c0,11-9,20-20,20H251.4c-11,0-20-9-20-20V511.5H317.7z"/>
		<path d="M293.4,97.1c-0.8,2.8-1.3,5.7-1.3,8.8v0.7v9.5V168c0,16.6,13.4,30,30,30h217.5c16.6,0,30-13.4,30-30v-51.9v-9.5v-0.7
			c0-3.1-0.5-6-1.3-8.8c-3.8-12.3-15.2-21.2-28.7-21.2h-38.2c0.101-1.7,0.2-3.3,0.2-5c0-4.3-0.4-8.4-1.1-12.5
			c-1.101-6.1-3-12-5.5-17.5C483.6,16.7,459.2,0,430.8,0C402.4,0,378,16.7,366.7,40.8c-2.6,5.5-4.5,11.4-5.5,17.5
			c-0.699,4.1-1.1,8.2-1.1,12.5c0,1.7,0.1,3.3,0.2,5h-38.2C308.5,75.8,297.1,84.8,293.4,97.1z M401,70.8c0-4.5,1-8.7,2.8-12.5
			c4.7-10.2,15-17.3,27-17.3s22.3,7.1,27,17.3c1.8,3.8,2.8,8,2.8,12.5c0,1.7-0.2,3.4-0.4,5c-1.6,9.2-7.3,17-15.3,21.2
			c-4.2,2.3-9,3.5-14.1,3.5c-5.101,0-9.9-1.3-14.101-3.5C408.8,92.7,403,85,401.4,75.8C401.2,74.2,401,72.5,401,70.8z"/>
	</g>
</g>
<g>
</g>
<g>
</g>
<g>
</g>
<g>
</g>
<g>
</g>
<g>
</g>
<g>
</g>
<g>
</g>
<g>
</g>
<g>
</g>
<g>
</g>
<g>
</g>
<g>
</g>
<g>
</g>
<g>
</g>
</svg>
