<?xml version="1.0" encoding="iso-8859-1"?>
<!-- Generator: Adobe Illustrator 16.0.0, SVG Export Plug-In . SVG Version: 6.00 Build 0)  -->
<!DOCTYPE svg PUBLIC "-//W3C//DTD SVG 1.1//EN" "http://www.w3.org/Graphics/SVG/1.1/DTD/svg11.dtd">
<svg fill="white" version="1.1" id="Capa_1" xmlns="http://www.w3.org/2000/svg" xmlns:xlink="http://www.w3.org/1999/xlink" x="0px" y="0px"
	 width="895.4px" height="895.4px" viewBox="0 0 895.4 895.4" style="enable-background:new 0 0 895.4 895.4;" xml:space="preserve"
	>
<g>
	<g>
		<path d="M153.95,136.6c2.4,0,4.8,0.1,7.2,0.4c3.5-18.6,13.8-35.4,28.9-47.1c5.9,2.7,12.4,4.1,19.3,4.1c26,0,47-21,47-47
			s-21-47-47-47c-21.8,0-40.1,14.8-45.4,34.9l-3.7,2.5c-33.7,22.9-55.3,59.3-59.7,99.3c1.1-0.1,2.3-0.1,3.4-0.1H153.95z"/>
		<path d="M257.15,525.6v130c0,63.101,24.2,124,68.5,168.9c45.1,45.7,105.3,70.9,169.5,70.9h21.2c63.6,0,123.3-24.801,168.3-69.7
			c34.6-34.601,57.2-78,65.8-125.2c-16.399,5.7-33.5,8.5-51.1,8.5c-21.2,0-41.8-4.2-61.101-12.4
			c-16.6,51.5-64.899,88.7-121.899,88.7h-21.2c-70.7,0-128-57.3-128-128V525.6c43-10.1,82.4-32.1,114.2-64.199
			c44.6-45,68.899-106.2,68.899-169.5v-90.3c0-14.6-10.399-26.7-24.199-29.4c-1.9-0.4-3.801-0.6-5.801-0.6h-50
			c-1.399,0-2.8,0.1-4.199,0.3c-14.601,2.1-25.801,14.6-25.801,29.7v90.8c0,70.7-56.699,129.2-127.399,129.6c-0.2,0-0.5,0-0.7,0
			c-70.7,0-128.2-57.5-128.2-128.2v-92.3c0-14.6-10.4-26.7-24.2-29.4c-1.9-0.4-3.8-0.6-5.8-0.6h-50c-1.4,0-2.8,0.1-4.2,0.3
			c-14.6,2.1-25.8,14.6-25.8,29.7v90.3c0,63.3,24.4,124.5,68.9,169.5C174.75,493.6,214.15,515.5,257.15,525.6z"/>
		<path d="M626.851,650.2c5.5,4.1,11.3,7.7,17.5,10.8c16.5,8.4,35.2,13.1,55,13.1s38.399-4.699,55-13c6.2-3.1,12-6.699,17.5-10.8
			c6.3-4.7,12.2-10,17.5-15.7c19.899-21.699,32.1-50.699,32.1-82.5c0-67.399-54.7-122.1-122.1-122.1
			c-67.4,0-122.101,54.7-122.101,122.1c0,31.801,12.2,60.801,32.101,82.5C614.65,640.2,620.551,645.5,626.851,650.2z"/>
		<path d="M414.851,94c7.3,0,14.1-1.6,20.3-4.6c15.5,11.7,25.9,28.6,29.5,47.4c1.9-0.2,3.7-0.3,5.6-0.3h50c1.7,0,3.301,0.1,5,0.2
			c-4.3-40.1-25.899-76.5-59.699-99.4l-5.7-3.8c-5.7-19.3-23.7-33.5-45-33.5c-26,0-47,21-47,47S388.95,94,414.851,94z"/>
	</g>
</g>
<g>
</g>
<g>
</g>
<g>
</g>
<g>
</g>
<g>
</g>
<g>
</g>
<g>
</g>
<g>
</g>
<g>
</g>
<g>
</g>
<g>
</g>
<g>
</g>
<g>
</g>
<g>
</g>
<g>
</g>
</svg>
